# xmcd
#
# Track frame offsets:
#	150
#	13571
#	28981
#	44876
#	59530
#	71461
#	89453
#	104098
#	120579
#	134037
#	143617
#	157604
#	174127
#	191976
#
# Disc length: 2823 seconds
# Revision: 1
# Processed by: cddbd v1.5.2PL0 Copyright (c) Steve Scherf et al.
# Submitted via: dBpowerAMP V12.0
#
DISCID=ca0b050e
DTITLE=Various Artist - Southern Nights: Classic Country Crossovers, Disc 1
DYEAR=2010
DGENRE=Country
TTITLE0=Glen Campbell - Southern Nights
TTITLE1=Juice Newton - Queen Of Hearts
TTITLE2=Kenny Rogers - The Gambler
TTITLE3=Anne Murray - Could I Have This Dance
TTITLE4=Crystal Gayle - Don't It Make My Brown Eyes Blue
TTITLE5=Eddie Rabbit and Crystal Gayle - You and I
TTITLE6=Glen Campbell - Rhinestone Cowboy
TTITLE7=Dan Seals - Bop
TTITLE8=Mel McDaniel - Baby's Got Her Blue Jeans On
TTITLE9=George Jones - The Race Is On
TTITLE10=Glen Campbell - Wichita Lineman
TTITLE11=Anne Murray - You Needed Me
TTITLE12=Juice Newton - Angel of The Morning
TTITLE13=Kenny Rogers - Through The Years
EXTD=
EXTT0=
EXTT1=
EXTT2=
EXTT3=
EXTT4=
EXTT5=
EXTT6=
EXTT7=
EXTT8=
EXTT9=
EXTT10=
EXTT11=
EXTT12=
EXTT13=
PLAYORDER=
